# This file uses centimeters as units for non-parametric coordinates.

mtllib paper.mtl
g default
v -0.500000 0.000000 0.792410
v -0.400000 0.000000 0.792410
v -0.300000 0.000000 0.792410
v -0.200000 0.000000 0.792410
v -0.100000 0.000000 0.792410
v 0.000000 0.000000 0.792410
v 0.100000 0.000000 0.792410
v 0.200000 0.000000 0.792410
v 0.300000 0.000000 0.792410
v 0.400000 0.000000 0.792410
v 0.500000 0.000000 0.792410
v -0.500000 0.000000 0.633928
v -0.400000 0.000000 0.633928
v -0.300000 0.000000 0.633928
v -0.200000 0.000000 0.633928
v -0.100000 0.000000 0.633928
v 0.000000 0.000000 0.633928
v 0.100000 0.000000 0.633928
v 0.200000 0.000000 0.633928
v 0.300000 0.000000 0.633928
v 0.400000 0.000000 0.633928
v 0.500000 0.000000 0.633928
v -0.500000 0.000000 0.475446
v -0.400000 0.000000 0.475446
v -0.300000 0.000000 0.475446
v -0.200000 0.000000 0.475446
v -0.100000 0.000000 0.475446
v 0.000000 0.000000 0.475446
v 0.100000 0.000000 0.475446
v 0.200000 0.000000 0.475446
v 0.300000 0.000000 0.475446
v 0.400000 0.000000 0.475446
v 0.500000 0.000000 0.475446
v -0.500000 0.000000 0.316964
v -0.400000 0.000000 0.316964
v -0.300000 0.000000 0.316964
v -0.200000 0.000000 0.316964
v -0.100000 0.000000 0.316964
v 0.000000 0.000000 0.316964
v 0.100000 0.000000 0.316964
v 0.200000 0.000000 0.316964
v 0.300000 0.000000 0.316964
v 0.400000 0.000000 0.316964
v 0.500000 0.000000 0.316964
v -0.500000 0.000000 0.158482
v -0.400000 0.000000 0.158482
v -0.300000 0.000000 0.158482
v -0.200000 0.000000 0.158482
v -0.100000 0.000000 0.158482
v 0.000000 0.000000 0.158482
v 0.100000 0.000000 0.158482
v 0.200000 0.000000 0.158482
v 0.300000 0.000000 0.158482
v 0.400000 0.000000 0.158482
v 0.500000 0.000000 0.158482
v -0.500000 0.000000 0.000000
v -0.400000 0.000000 0.000000
v -0.300000 0.000000 0.000000
v -0.200000 0.000000 0.000000
v -0.100000 0.000000 0.000000
v 0.000000 0.000000 0.000000
v 0.100000 0.000000 0.000000
v 0.200000 0.000000 0.000000
v 0.300000 0.000000 0.000000
v 0.400000 0.000000 0.000000
v 0.500000 0.000000 0.000000
v -0.500000 0.000000 -0.158482
v -0.400000 0.000000 -0.158482
v -0.300000 0.000000 -0.158482
v -0.200000 0.000000 -0.158482
v -0.100000 0.000000 -0.158482
v 0.000000 0.000000 -0.158482
v 0.100000 0.000000 -0.158482
v 0.200000 0.000000 -0.158482
v 0.300000 0.000000 -0.158482
v 0.400000 0.000000 -0.158482
v 0.500000 0.000000 -0.158482
v -0.500000 0.000000 -0.316964
v -0.400000 0.000000 -0.316964
v -0.300000 0.000000 -0.316964
v -0.200000 0.000000 -0.316964
v -0.100000 0.000000 -0.316964
v 0.000000 0.000000 -0.316964
v 0.100000 0.000000 -0.316964
v 0.200000 0.000000 -0.316964
v 0.300000 0.000000 -0.316964
v 0.400000 0.000000 -0.316964
v 0.500000 0.000000 -0.316964
v -0.500000 0.000000 -0.475446
v -0.400000 0.000000 -0.475446
v -0.300000 0.000000 -0.475446
v -0.200000 0.000000 -0.475446
v -0.100000 0.000000 -0.475446
v 0.000000 0.000000 -0.475446
v 0.100000 0.000000 -0.475446
v 0.200000 0.000000 -0.475446
v 0.300000 0.000000 -0.475446
v 0.400000 0.000000 -0.475446
v 0.500000 0.000000 -0.475446
v -0.500000 0.000000 -0.633928
v -0.400000 0.000000 -0.633928
v -0.300000 0.000000 -0.633928
v -0.200000 0.000000 -0.633928
v -0.100000 0.000000 -0.633928
v 0.000000 0.000000 -0.633928
v 0.100000 0.000000 -0.633928
v 0.200000 0.000000 -0.633928
v 0.300000 0.000000 -0.633928
v 0.400000 0.000000 -0.633928
v 0.500000 0.000000 -0.633928
v -0.500000 0.000000 -0.792410
v -0.400000 0.000000 -0.792410
v -0.300000 0.000000 -0.792410
v -0.200000 0.000000 -0.792410
v -0.100000 0.000000 -0.792410
v 0.000000 0.000000 -0.792410
v 0.100000 0.000000 -0.792410
v 0.200000 0.000000 -0.792410
v 0.300000 0.000000 -0.792410
v 0.400000 0.000000 -0.792410
v 0.500000 0.000000 -0.792410
vt 0.211034 0.020638
vt 0.270991 0.020333
vt 0.271475 0.115354
vt 0.211518 0.115659
vt 0.330948 0.020028
vt 0.331432 0.115049
vt 0.271958 0.210375
vt 0.212001 0.210680
vt 0.390905 0.019722
vt 0.391389 0.114744
vt 0.331915 0.210070
vt 0.272442 0.305396
vt 0.212485 0.305702
vt 0.450863 0.019417
vt 0.451346 0.114439
vt 0.391872 0.209765
vt 0.332399 0.305091
vt 0.272925 0.400418
vt 0.212968 0.400723
vt 0.510820 0.019112
vt 0.511303 0.114134
vt 0.451830 0.209460
vt 0.392356 0.304786
vt 0.332882 0.400113
vt 0.273409 0.495439
vt 0.213452 0.495744
vt 0.570777 0.018807
vt 0.571260 0.113828
vt 0.511787 0.209155
vt 0.452313 0.304481
vt 0.392839 0.399808
vt 0.333366 0.495134
vt 0.273892 0.590460
vt 0.213935 0.590765
vt 0.630734 0.018502
vt 0.631217 0.113523
vt 0.571744 0.208850
vt 0.512270 0.304176
vt 0.452797 0.399502
vt 0.393323 0.494829
vt 0.333849 0.590155
vt 0.274376 0.685482
vt 0.214419 0.685787
vt 0.690691 0.018197
vt 0.691175 0.113218
vt 0.631701 0.208545
vt 0.572227 0.303871
vt 0.512754 0.399197
vt 0.453280 0.494524
vt 0.393807 0.589850
vt 0.334333 0.685176
vt 0.274859 0.780503
vt 0.214902 0.780808
vt 0.750648 0.017892
vt 0.751132 0.112913
vt 0.691658 0.208240
vt 0.632185 0.303566
vt 0.572711 0.398892
vt 0.513237 0.494219
vt 0.453764 0.589545
vt 0.394290 0.684871
vt 0.334816 0.780198
vt 0.275343 0.875524
vt 0.215386 0.875829
vt 0.810605 0.017587
vt 0.811089 0.112608
vt 0.751615 0.207934
vt 0.692142 0.303261
vt 0.632668 0.398587
vt 0.573194 0.493914
vt 0.513721 0.589240
vt 0.454247 0.684566
vt 0.394774 0.779893
vt 0.335300 0.875219
vt 0.275826 0.970545
vt 0.215869 0.970851
vt 0.811572 0.207629
vt 0.752099 0.302956
vt 0.692625 0.398282
vt 0.633152 0.493609
vt 0.573678 0.588935
vt 0.514204 0.684261
vt 0.454731 0.779588
vt 0.395257 0.874914
vt 0.335783 0.970240
vt 0.812056 0.302651
vt 0.752582 0.397977
vt 0.693109 0.493303
vt 0.633635 0.588630
vt 0.574161 0.683956
vt 0.514688 0.779283
vt 0.455214 0.874609
vt 0.395741 0.969935
vt 0.812539 0.397672
vt 0.753066 0.492998
vt 0.693592 0.588325
vt 0.634119 0.683651
vt 0.574645 0.778978
vt 0.515171 0.874304
vt 0.455698 0.969630
vt 0.813023 0.492693
vt 0.753549 0.588020
vt 0.694076 0.683346
vt 0.634602 0.778672
vt 0.575128 0.873999
vt 0.515655 0.969325
vt 0.813506 0.587715
vt 0.754033 0.683041
vt 0.694559 0.778367
vt 0.635086 0.873694
vt 0.575612 0.969020
vt 0.813990 0.682736
vt 0.754516 0.778062
vt 0.695043 0.873389
vt 0.635569 0.968715
vt 0.814474 0.777757
vt 0.755000 0.873084
vt 0.695526 0.968410
vt 0.814957 0.872778
vt 0.755483 0.968105
vt 0.815441 0.967800
vn 0.000000 1.000000 0.000000
vn 0.000000 1.000000 0.000000
vn 0.000000 1.000000 0.000000
vn 0.000000 1.000000 0.000000
vn 0.000000 1.000000 0.000000
vn 0.000000 1.000000 0.000000
vn 0.000000 1.000000 0.000000
vn 0.000000 1.000000 0.000000
vn 0.000000 1.000000 0.000000
vn 0.000000 1.000000 0.000000
vn 0.000000 1.000000 0.000000
vn 0.000000 1.000000 0.000000
vn 0.000000 1.000000 0.000000
vn 0.000000 1.000000 0.000000
vn 0.000000 1.000000 0.000000
vn 0.000000 1.000000 0.000000
vn 0.000000 1.000000 0.000000
vn 0.000000 1.000000 0.000000
vn 0.000000 1.000000 0.000000
vn 0.000000 1.000000 0.000000
vn 0.000000 1.000000 0.000000
vn 0.000000 1.000000 0.000000
vn 0.000000 1.000000 0.000000
vn 0.000000 1.000000 0.000000
vn 0.000000 1.000000 0.000000
vn 0.000000 1.000000 0.000000
vn 0.000000 1.000000 0.000000
vn 0.000000 1.000000 0.000000
vn 0.000000 1.000000 0.000000
vn 0.000000 1.000000 0.000000
vn 0.000000 1.000000 0.000000
vn 0.000000 1.000000 0.000000
vn 0.000000 1.000000 0.000000
vn 0.000000 1.000000 0.000000
vn 0.000000 1.000000 0.000000
vn 0.000000 1.000000 0.000000
vn 0.000000 1.000000 0.000000
vn 0.000000 1.000000 0.000000
vn 0.000000 1.000000 0.000000
vn 0.000000 1.000000 0.000000
vn 0.000000 1.000000 0.000000
vn 0.000000 1.000000 0.000000
vn 0.000000 1.000000 0.000000
vn 0.000000 1.000000 0.000000
vn 0.000000 1.000000 0.000000
vn 0.000000 1.000000 0.000000
vn 0.000000 1.000000 0.000000
vn 0.000000 1.000000 0.000000
vn 0.000000 1.000000 0.000000
vn 0.000000 1.000000 0.000000
vn 0.000000 1.000000 0.000000
vn 0.000000 1.000000 0.000000
vn 0.000000 1.000000 0.000000
vn 0.000000 1.000000 0.000000
vn 0.000000 1.000000 0.000000
vn 0.000000 1.000000 0.000000
vn 0.000000 1.000000 0.000000
vn 0.000000 1.000000 0.000000
vn 0.000000 1.000000 0.000000
vn 0.000000 1.000000 0.000000
vn 0.000000 1.000000 0.000000
vn 0.000000 1.000000 0.000000
vn 0.000000 1.000000 0.000000
vn 0.000000 1.000000 0.000000
vn 0.000000 1.000000 0.000000
vn 0.000000 1.000000 0.000000
vn 0.000000 1.000000 0.000000
vn 0.000000 1.000000 0.000000
vn 0.000000 1.000000 0.000000
vn 0.000000 1.000000 0.000000
vn 0.000000 1.000000 0.000000
vn 0.000000 1.000000 0.000000
vn 0.000000 1.000000 0.000000
vn 0.000000 1.000000 0.000000
vn 0.000000 1.000000 0.000000
vn 0.000000 1.000000 0.000000
vn 0.000000 1.000000 0.000000
vn 0.000000 1.000000 0.000000
vn 0.000000 1.000000 0.000000
vn 0.000000 1.000000 0.000000
vn 0.000000 1.000000 0.000000
vn 0.000000 1.000000 0.000000
vn 0.000000 1.000000 0.000000
vn 0.000000 1.000000 0.000000
vn 0.000000 1.000000 0.000000
vn 0.000000 1.000000 0.000000
vn 0.000000 1.000000 0.000000
vn 0.000000 1.000000 0.000000
vn 0.000000 1.000000 0.000000
vn 0.000000 1.000000 0.000000
vn 0.000000 1.000000 0.000000
vn 0.000000 1.000000 0.000000
vn 0.000000 1.000000 0.000000
vn 0.000000 1.000000 0.000000
vn 0.000000 1.000000 0.000000
vn 0.000000 1.000000 0.000000
vn 0.000000 1.000000 0.000000
vn 0.000000 1.000000 0.000000
vn 0.000000 1.000000 0.000000
vn 0.000000 1.000000 0.000000
vn 0.000000 1.000000 0.000000
vn 0.000000 1.000000 0.000000
vn 0.000000 1.000000 0.000000
vn 0.000000 1.000000 0.000000
vn 0.000000 1.000000 0.000000
vn 0.000000 1.000000 0.000000
vn 0.000000 1.000000 0.000000
vn 0.000000 1.000000 0.000000
vn 0.000000 1.000000 0.000000
vn 0.000000 1.000000 0.000000
vn 0.000000 1.000000 0.000000
vn 0.000000 1.000000 0.000000
vn 0.000000 1.000000 0.000000
vn 0.000000 1.000000 0.000000
vn 0.000000 1.000000 0.000000
vn 0.000000 1.000000 0.000000
vn 0.000000 1.000000 0.000000
vn 0.000000 1.000000 0.000000
vn 0.000000 1.000000 0.000000
vn 0.000000 1.000000 0.000000
vn 0.000000 1.000000 0.000000
s 1
g pPlane1
usemtl initialShadingGroup
f 1/1/1 2/2/2 13/3/3 12/4/4
f 2/2/2 3/5/5 14/6/6 13/3/3
f 3/5/5 4/9/7 15/10/8 14/6/6
f 4/9/7 5/14/9 16/15/10 15/10/8
f 5/14/9 6/20/11 17/21/12 16/15/10
f 6/20/11 7/27/13 18/28/14 17/21/12
f 7/27/13 8/35/15 19/36/16 18/28/14
f 8/35/15 9/44/17 20/45/18 19/36/16
f 9/44/17 10/54/19 21/55/20 20/45/18
f 10/54/19 11/65/21 22/66/22 21/55/20
f 12/4/4 13/3/3 24/7/23 23/8/24
f 13/3/3 14/6/6 25/11/25 24/7/23
f 14/6/6 15/10/8 26/16/26 25/11/25
f 15/10/8 16/15/10 27/22/27 26/16/26
f 16/15/10 17/21/12 28/29/28 27/22/27
f 17/21/12 18/28/14 29/37/29 28/29/28
f 18/28/14 19/36/16 30/46/30 29/37/29
f 19/36/16 20/45/18 31/56/31 30/46/30
f 20/45/18 21/55/20 32/67/32 31/56/31
f 21/55/20 22/66/22 33/77/33 32/67/32
f 23/8/24 24/7/23 35/12/34 34/13/35
f 24/7/23 25/11/25 36/17/36 35/12/34
f 25/11/25 26/16/26 37/23/37 36/17/36
f 26/16/26 27/22/27 38/30/38 37/23/37
f 27/22/27 28/29/28 39/38/39 38/30/38
f 28/29/28 29/37/29 40/47/40 39/38/39
f 29/37/29 30/46/30 41/57/41 40/47/40
f 30/46/30 31/56/31 42/68/42 41/57/41
f 31/56/31 32/67/32 43/78/43 42/68/42
f 32/67/32 33/77/33 44/86/44 43/78/43
f 34/13/35 35/12/34 46/18/45 45/19/46
f 35/12/34 36/17/36 47/24/47 46/18/45
f 36/17/36 37/23/37 48/31/48 47/24/47
f 37/23/37 38/30/38 49/39/49 48/31/48
f 38/30/38 39/38/39 50/48/50 49/39/49
f 39/38/39 40/47/40 51/58/51 50/48/50
f 40/47/40 41/57/41 52/69/52 51/58/51
f 41/57/41 42/68/42 53/79/53 52/69/52
f 42/68/42 43/78/43 54/87/54 53/79/53
f 43/78/43 44/86/44 55/94/55 54/87/54
f 45/19/46 46/18/45 57/25/56 56/26/57
f 46/18/45 47/24/47 58/32/58 57/25/56
f 47/24/47 48/31/48 59/40/59 58/32/58
f 48/31/48 49/39/49 60/49/60 59/40/59
f 49/39/49 50/48/50 61/59/61 60/49/60
f 50/48/50 51/58/51 62/70/62 61/59/61
f 51/58/51 52/69/52 63/80/63 62/70/62
f 52/69/52 53/79/53 64/88/64 63/80/63
f 53/79/53 54/87/54 65/95/65 64/88/64
f 54/87/54 55/94/55 66/101/66 65/95/65
f 56/26/57 57/25/56 68/33/67 67/34/68
f 57/25/56 58/32/58 69/41/69 68/33/67
f 58/32/58 59/40/59 70/50/70 69/41/69
f 59/40/59 60/49/60 71/60/71 70/50/70
f 60/49/60 61/59/61 72/71/72 71/60/71
f 61/59/61 62/70/62 73/81/73 72/71/72
f 62/70/62 63/80/63 74/89/74 73/81/73
f 63/80/63 64/88/64 75/96/75 74/89/74
f 64/88/64 65/95/65 76/102/76 75/96/75
f 65/95/65 66/101/66 77/107/77 76/102/76
f 67/34/68 68/33/67 79/42/78 78/43/79
f 68/33/67 69/41/69 80/51/80 79/42/78
f 69/41/69 70/50/70 81/61/81 80/51/80
f 70/50/70 71/60/71 82/72/82 81/61/81
f 71/60/71 72/71/72 83/82/83 82/72/82
f 72/71/72 73/81/73 84/90/84 83/82/83
f 73/81/73 74/89/74 85/97/85 84/90/84
f 74/89/74 75/96/75 86/103/86 85/97/85
f 75/96/75 76/102/76 87/108/87 86/103/86
f 76/102/76 77/107/77 88/112/88 87/108/87
f 78/43/79 79/42/78 90/52/89 89/53/90
f 79/42/78 80/51/80 91/62/91 90/52/89
f 80/51/80 81/61/81 92/73/92 91/62/91
f 81/61/81 82/72/82 93/83/93 92/73/92
f 82/72/82 83/82/83 94/91/94 93/83/93
f 83/82/83 84/90/84 95/98/95 94/91/94
f 84/90/84 85/97/85 96/104/96 95/98/95
f 85/97/85 86/103/86 97/109/97 96/104/96
f 86/103/86 87/108/87 98/113/98 97/109/97
f 87/108/87 88/112/88 99/116/99 98/113/98
f 89/53/90 90/52/89 101/63/100 100/64/101
f 90/52/89 91/62/91 102/74/102 101/63/100
f 91/62/91 92/73/92 103/84/103 102/74/102
f 92/73/92 93/83/93 104/92/104 103/84/103
f 93/83/93 94/91/94 105/99/105 104/92/104
f 94/91/94 95/98/95 106/105/106 105/99/105
f 95/98/95 96/104/96 107/110/107 106/105/106
f 96/104/96 97/109/97 108/114/108 107/110/107
f 97/109/97 98/113/98 109/117/109 108/114/108
f 98/113/98 99/116/99 110/119/110 109/117/109
f 100/64/101 101/63/100 112/75/111 111/76/112
f 101/63/100 102/74/102 113/85/113 112/75/111
f 102/74/102 103/84/103 114/93/114 113/85/113
f 103/84/103 104/92/104 115/100/115 114/93/114
f 104/92/104 105/99/105 116/106/116 115/100/115
f 105/99/105 106/105/106 117/111/117 116/106/116
f 106/105/106 107/110/107 118/115/118 117/111/117
f 107/110/107 108/114/108 119/118/119 118/115/118
f 108/114/108 109/117/109 120/120/120 119/118/119
f 109/117/109 110/119/110 121/121/121 120/120/120
